<svg width="24" height="22" viewBox="0 0 24 22" fill="none" xmlns="http://www.w3.org/2000/svg">
<path d="M21 5.44434H3.22222C1.99492 5.44434 1 6.43926 1 7.66656V18.7777C1 20.005 1.99492 20.9999 3.22222 20.9999H21C22.2273 20.9999 23.2222 20.005 23.2222 18.7777V7.66656C23.2222 6.43926 22.2273 5.44434 21 5.44434Z" stroke="white" stroke-linecap="round" stroke-linejoin="round"/>
<path d="M16.5556 21V3.22222C16.5556 2.63285 16.3214 2.06762 15.9047 1.65087C15.488 1.23413 14.9227 1 14.3334 1H9.88891C9.29954 1 8.73431 1.23413 8.31756 1.65087C7.90081 2.06762 7.66669 2.63285 7.66669 3.22222V21" stroke="white" stroke-linecap="round" stroke-linejoin="round"/>
</svg>
