<?xml version="1.0" standalone="no"?>
<svg version="1.0" xmlns="http://www.w3.org/2000/svg" width="55.000000pt" height="51.000000pt" viewBox="0 0 55.000000 51.000000" preserveAspectRatio="xMidYMid meet">
<g transform="translate(0.000000,51.000000) scale(0.100000,-0.100000)" fill="#04297A" stroke="none">
<path d="M165 476 c-158 -73 -193 -277 -69 -400 124 -125 342 -84 408 76 18 43 21 144 6 184 l-11 27 -48 -47 c-36 -35 -50 -58 -55 -86 -17 -106 -171 -138 -226 -48 -45 75 -12 165 71 189 33 10 45 9 79 -6 22 -10 40 -21 40 -24 0 -4 -20 -27 -45 -51 l-45 -44 -23 22 c-13 12 -29 22 -35 22 -22 0 -12 -26 23 -60
l35 -34 103 102 102 103 -41 39 c-69 64 -177 79 -269 36z"/>
</g>
</svg>
