<svg width="24" height="24" viewBox="0 0 24 24" fill="none" xmlns="http://www.w3.org/2000/svg">
<path d="M14.8493 9.18213L9.15723 14.8742" stroke="#008768" stroke-width="1.5" stroke-linecap="round" stroke-linejoin="round"/>
<path d="M14.8493 14.8742L9.15723 9.18213" stroke="#008768" stroke-width="1.5" stroke-linecap="round" stroke-linejoin="round"/>
<path d="M20.7094 12.0251C20.7094 13.7476 20.1986 15.4314 19.2416 16.8637C18.2846 18.2959 16.9244 19.4121 15.3331 20.0713C13.7417 20.7305 11.9905 20.903 10.3011 20.5669C8.6117 20.2309 7.05988 19.4014 5.84188 18.1834C4.62388 16.9654 3.79441 15.4136 3.45836 13.7242C3.12232 12.0348 3.29479 10.2836 3.95397 8.69224C4.61314 7.10084 5.72942 5.74066 7.16164 4.78368C8.59385 3.8267 10.2777 3.31592 12.0002 3.31592C14.31 3.31592 16.5252 4.23349 18.1585 5.86678C19.7918 7.50006 20.7094 9.71528 20.7094 12.0251V12.0251Z" stroke="#008768" stroke-width="1.5" stroke-linecap="round" stroke-linejoin="round"/>
</svg>
