<svg width="32" height="32" viewBox="0 0 32 32" fill="none" xmlns="http://www.w3.org/2000/svg">
<path d="M19.7989 12.2422L12.2095 19.8316" stroke="#008768" stroke-width="1.5" stroke-linecap="round" stroke-linejoin="round"/>
<path d="M19.7989 19.8316L12.2095 12.2422" stroke="#008768" stroke-width="1.5" stroke-linecap="round" stroke-linejoin="round"/>
<path d="M27.6122 16.0331C27.6122 18.3298 26.9311 20.5749 25.6552 22.4845C24.3792 24.3942 22.5656 25.8825 20.4437 26.7614C18.3219 27.6403 15.9871 27.8703 13.7345 27.4222C11.4819 26.9742 9.41285 25.8682 7.78885 24.2442C6.16485 22.6202 5.05889 20.5511 4.61083 18.2986C4.16277 16.046 4.39273 13.7112 5.27163 11.5893C6.15053 9.46746 7.6389 7.65388 9.54852 6.37791C11.4581 5.10194 13.7033 4.4209 15.9999 4.4209C19.0797 4.4209 22.0333 5.64433 24.211 7.82204C26.3887 9.99976 27.6122 12.9534 27.6122 16.0331V16.0331Z" stroke="#008768" stroke-width="1.5" stroke-linecap="round" stroke-linejoin="round"/>
</svg>
