<svg width="16" height="16" viewBox="0 0 16 16" fill="none" xmlns="http://www.w3.org/2000/svg">
<path d="M8.00011 1C11.8663 1 15.0002 4.13383 15 8C15.0002 11.8664 11.8661 15.0004 7.99989 15C4.13344 15.0002 0.999775 11.8664 1 8.00023C0.999325 4.13383 4.13344 1 8.00011 1Z" stroke="#008768" stroke-width="0.5" stroke-miterlimit="10"/>
<path d="M8 1V15" stroke="#008768" stroke-width="0.5" stroke-miterlimit="10"/>
<path d="M15 8H1" stroke="#008768" stroke-width="0.5" stroke-miterlimit="10"/>
<path d="M7.61111 1C7.61111 1 4.5 3.48387 4.5 8C4.5 12.5161 7.61111 15 7.61111 15" stroke="#008768" stroke-width="0.5" stroke-miterlimit="10"/>
<path d="M8.38867 1C8.38867 1 11.4998 3.48387 11.4998 8C11.4998 12.5161 8.38867 15 8.38867 15" stroke="#008768" stroke-width="0.5" stroke-miterlimit="10"/>
<path d="M2.55566 3.33337C2.55566 3.33337 3.68992 5.66671 8.00011 5.66671C12.3103 5.66671 13.4446 3.33337 13.4446 3.33337" stroke="#008768" stroke-width="0.5" stroke-miterlimit="10"/>
<path d="M2.55566 12.6667C2.55566 12.6667 3.68992 10.3334 8.00011 10.3334C12.3103 10.3334 13.4446 12.6667 13.4446 12.6667" stroke="#008768" stroke-width="0.5" stroke-miterlimit="10"/>
</svg>
