<svg width="20" height="20" viewBox="0 0 20 20" fill="none" xmlns="http://www.w3.org/2000/svg">
<path d="M7.59473 4.97158V3.69631C7.59609 3.44925 7.69484 3.21269 7.86954 3.03799C8.04424 2.86329 8.28079 2.76454 8.52785 2.76318H11.4724C11.7199 2.76318 11.9572 2.86149 12.1322 3.03649C12.3072 3.21148 12.4055 3.44883 12.4055 3.69631V4.97158" stroke="#008768" stroke-width="1.5" stroke-linecap="round" stroke-linejoin="round"/>
<path d="M14.9923 6.44873L14.619 16.2154C14.5982 16.496 14.4725 16.7585 14.2669 16.9506C14.0613 17.1427 13.791 17.2504 13.5096 17.2523H6.73928C6.45641 17.2485 6.18481 17.1408 5.97635 16.9495C5.76789 16.7583 5.63717 16.497 5.60916 16.2154L5.00781 6.44873" stroke="#008768" stroke-width="1.5" stroke-linecap="round" stroke-linejoin="round"/>
<path d="M3.99683 5.02832H16.003" stroke="#008768" stroke-width="1.5" stroke-linecap="round" stroke-linejoin="round"/>
<path d="M10 15.7075V6.42285" stroke="#008768" stroke-width="1.5" stroke-linecap="round" stroke-linejoin="round"/>
<path d="M12.1306 15.7078L12.3846 6.41797" stroke="#008768" stroke-width="1.5" stroke-linecap="round" stroke-linejoin="round"/>
<path d="M7.61523 6.42822L7.87962 15.7076" stroke="#008768" stroke-width="1.5" stroke-linecap="round" stroke-linejoin="round"/>
</svg>
