<svg width="20" height="20" viewBox="0 0 20 20" fill="none" xmlns="http://www.w3.org/2000/svg">
<path d="M7.59473 4.97146V3.69619C7.59609 3.44913 7.69484 3.21257 7.86954 3.03787C8.04424 2.86317 8.28079 2.76442 8.52785 2.76306H11.4724C11.7199 2.76306 11.9572 2.86137 12.1322 3.03637C12.3072 3.21136 12.4055 3.44871 12.4055 3.69619V4.97146" stroke="#008768" stroke-linecap="round" stroke-linejoin="round"/>
<path d="M14.9923 6.44897L14.619 16.2157C14.5982 16.4963 14.4725 16.7587 14.2669 16.9509C14.0613 17.143 13.791 17.2507 13.5096 17.2525H6.73928C6.45641 17.2488 6.18481 17.141 5.97635 16.9498C5.76789 16.7585 5.63717 16.4972 5.60916 16.2157L5.00781 6.44897" stroke="#008768" stroke-linecap="round" stroke-linejoin="round"/>
<path d="M3.99683 5.02856H16.003" stroke="#008768" stroke-linecap="round" stroke-linejoin="round"/>
<path d="M10 15.7076V6.42297" stroke="#008768" stroke-linecap="round" stroke-linejoin="round"/>
<path d="M12.1306 15.7076L12.3846 6.41785" stroke="#008768" stroke-linecap="round" stroke-linejoin="round"/>
<path d="M7.61523 6.42822L7.87962 15.7076" stroke="#008768" stroke-linecap="round" stroke-linejoin="round"/>
</svg>
