<svg width="17" height="18" viewBox="0 0 17 18" fill="none" xmlns="http://www.w3.org/2000/svg">
<path fill-rule="evenodd" clip-rule="evenodd" d="M13.9737 1.96583H12.0461C11.756 1.96583 11.5432 1.72544 11.5346 1.4289C11.5226 1.14464 11.7801 0.902498 12.0495 0.902498H12.2847H13.5223C13.5883 0.902498 13.6544 0.901849 13.7204 0.901199C13.9976 0.898474 14.2743 0.895753 14.5488 0.941101C15.292 1.06217 15.9151 1.67806 16.1228 2.40625C16.1863 2.6291 16.2 2.86072 16.2 3.09233V4.36272V6.61397V9.33371V11.9903V14.0538V15.0118C16.1983 15.5804 15.9735 16.1436 15.5649 16.5314C15.2903 16.7911 14.9418 16.9911 14.5711 17.0578C14.3943 17.0894 14.2243 17.0999 14.0475 17.0999H12.0495C11.7612 17.0999 11.5466 16.8595 11.5346 16.5735C11.5226 16.2892 11.7801 16.0471 12.0495 16.0471H12.3379H13.5292C13.6055 16.0471 13.6825 16.0487 13.76 16.0504C13.9418 16.0542 14.1256 16.0581 14.3056 16.041C14.3896 16.025 14.4717 16.0023 14.5519 15.9725C14.6218 15.9388 14.6886 15.9002 14.753 15.8558C14.7587 15.8516 14.7642 15.8474 14.7696 15.8433C14.7747 15.8394 14.7798 15.8355 14.7849 15.8317C14.8157 15.8046 14.8453 15.7773 14.8749 15.747C14.9067 15.7146 14.9355 15.6806 14.9655 15.6451C14.9728 15.6348 14.9799 15.6243 14.9865 15.6137C15.0266 15.5501 15.0622 15.4853 15.0934 15.4176C15.1228 15.3351 15.1452 15.2507 15.1609 15.1643C15.165 15.1158 15.1667 15.0673 15.1667 15.0189V14.5837V13.5993V12.2149V10.5585V8.78625V7.03158V5.42605V4.12759V3.26429C15.1667 3.23113 15.167 3.19782 15.1673 3.16442C15.1683 3.05793 15.1692 2.95052 15.1605 2.84431C15.1448 2.75903 15.1227 2.67569 15.0937 2.59431C15.0607 2.5228 15.023 2.45459 14.9796 2.38871C14.9755 2.38292 14.9714 2.3773 14.9673 2.37174C14.9635 2.3665 14.9597 2.36132 14.956 2.35612C14.9295 2.32458 14.9027 2.29435 14.8732 2.26413C14.8414 2.23164 14.8082 2.20217 14.7734 2.17153C14.7634 2.16404 14.7531 2.15679 14.7427 2.15007C14.6805 2.10907 14.6171 2.07262 14.5509 2.04074C14.4716 2.01115 14.3903 1.98855 14.3072 1.97253C14.2161 1.9649 14.1243 1.96528 14.0332 1.96567C14.0133 1.96575 13.9935 1.96583 13.9737 1.96583ZM14.2243 1.95881C14.2324 1.95993 14.2404 1.9611 14.2484 1.96234C14.2404 1.9612 14.2324 1.96003 14.2243 1.95881ZM14.626 2.07111L14.6023 2.061C14.6102 2.0643 14.6181 2.06767 14.626 2.07111ZM15.0637 2.5168C15.0671 2.52487 15.0704 2.53295 15.0736 2.54106L15.0637 2.5168ZM15.1736 2.92739C15.1724 2.91915 15.1712 2.91097 15.1701 2.90281C15.1713 2.91099 15.1725 2.91918 15.1736 2.92739ZM15.1736 15.0838C15.1725 15.092 15.1713 15.1002 15.1701 15.1084C15.1712 15.1002 15.1724 15.092 15.1736 15.0838ZM15.0637 15.4944L15.0736 15.4701C15.0704 15.4782 15.0671 15.4863 15.0637 15.4944ZM14.6277 15.9418C14.6198 15.9453 14.6119 15.9486 14.604 15.9519L14.6277 15.9418ZM14.2261 16.0541C14.2341 16.0529 14.2421 16.0517 14.2501 16.0506C14.2421 16.0518 14.2341 16.053 14.2261 16.0541ZM6.83138 13.5133V14.7241C6.83138 14.9504 6.69406 15.0048 6.53786 14.8451L6.52756 14.8346C6.3718 14.6859 6.22215 14.5294 6.07301 14.3735C5.99863 14.2957 5.92437 14.218 5.84955 14.1415L4.45232 12.7132L2.84224 11.0673L1.50509 9.70044L0.948945 9.13192C0.883718 9.06525 0.883718 8.95119 0.948945 8.88452L0.959244 8.87399C1.1047 8.71476 1.25779 8.56179 1.41037 8.40933C1.48647 8.33329 1.56243 8.25738 1.63726 8.18089L3.03449 6.75259L4.64456 5.1067L5.98172 3.73981L6.53786 3.17129C6.64428 3.06426 6.83138 3.14322 6.83138 3.29588V3.74332V5.67697V6.71223H6.91721H7.43902H9.01305H10.8325H12.3362H12.9627C13.0554 6.71223 13.1344 6.79294 13.1344 6.8877V7.41585V9.69167V11.1323C13.1344 11.227 13.0554 11.3077 12.9627 11.3077H12.9507C12.7802 11.3147 12.6097 11.3124 12.4392 11.3101C12.3539 11.3089 12.2687 11.3077 12.1834 11.3077H10.6094H8.78991H7.28625H6.83138V11.5797V13.5133Z" fill="#E52713"/>
</svg>
