<svg width="19" height="19" viewBox="0 0 19 19" fill="none" xmlns="http://www.w3.org/2000/svg">
<path d="M15.1176 1H1L7.01681 9.5V17L9.10084 15V9.5L15.1176 1Z" stroke="#008768"/>
<path d="M13.1925 4.72217C10.3536 4.72217 8.05884 7.01693 8.05884 9.85586C8.05884 12.6948 10.3536 14.9895 13.1925 14.9895C16.0315 14.9895 18.3262 12.6948 18.3262 9.85586C18.3262 7.01693 16.0315 4.72217 13.1925 4.72217Z" fill="white"/>
<path fill-rule="evenodd" clip-rule="evenodd" d="M8.05884 9.85586C8.05884 12.6858 10.3626 14.9895 13.1925 14.9895C16.0225 14.9895 18.3262 12.6858 18.3262 9.85586C18.3262 7.02591 16.0225 4.72217 13.1925 4.72217C10.3626 4.72217 8.05884 7.02591 8.05884 9.85586ZM13.1926 9.13206L15.0356 7.28906L15.7595 8.01291L13.9165 9.85591L15.7595 11.6989L15.0356 12.4228L13.1926 10.5798L11.3496 12.4228L10.6258 11.6989L12.4688 9.85591L10.6258 8.01291L11.3496 7.28906L13.1926 9.13206Z" fill="#F68B21"/>
</svg>
