<svg width="11" height="11" viewBox="0 0 11 11" fill="none" xmlns="http://www.w3.org/2000/svg">
<path d="M5.19253 0.722168C2.3536 0.722168 0.0588379 3.01693 0.0588379 5.85586C0.0588379 8.69479 2.3536 10.9895 5.19253 10.9895C8.03146 10.9895 10.3262 8.69479 10.3262 5.85586C10.3262 3.01693 8.03146 0.722168 5.19253 0.722168Z" fill="white"/>
<path fill-rule="evenodd" clip-rule="evenodd" d="M0.0588379 5.85586C0.0588379 8.6858 2.36258 10.9895 5.19253 10.9895C8.02247 10.9895 10.3262 8.6858 10.3262 5.85586C10.3262 3.02591 8.02247 0.722168 5.19253 0.722168C2.36258 0.722168 0.0588379 3.02591 0.0588379 5.85586ZM5.19263 5.13206L7.03562 3.28906L7.75947 4.01291L5.91648 5.85591L7.75947 7.6989L7.03562 8.42275L5.19263 6.57976L3.34963 8.42275L2.62578 7.6989L4.46878 5.85591L2.62578 4.01291L3.34963 3.28906L5.19263 5.13206Z" fill="#F68B21"/>
</svg>
