<svg width="32" height="27" viewBox="0 0 37 33" fill="none" xmlns="http://www.w3.org/2000/svg">
<path d="M23.5891 26.1588L30.3751 30.2546L28.5743 22.5352L34.5697 17.3414L26.6746 16.6715L23.5891 9.39136L20.5035 16.6715L12.6084 17.3414L18.6038 22.5352L16.803 30.2546L23.5891 26.1588Z" fill="#008768"/>
<path d="M14.1767 25.8893H3.92815C3.15155 25.8893 2.40677 25.5808 1.85763 25.0316C1.3085 24.4825 1 23.7377 1 22.9611V3.92815C1 2.31767 2.31767 1 3.92815 1H9.68196C10.1642 1.0025 10.6384 1.12408 11.0624 1.35395C11.4864 1.58383 11.8471 1.91487 12.1123 2.31767L13.3129 4.07456C13.5781 4.47735 13.9388 4.8084 14.3627 5.03827C14.7867 5.26814 15.2609 5.38973 15.7432 5.39222H27.3533C28.1299 5.39222 28.8747 5.70072 29.4238 6.24986C29.973 6.79899 30.2815 7.54378 30.2815 8.32037V10.5165" stroke="#008768" stroke-width="1.5" stroke-linecap="round" stroke-linejoin="round"/>
</svg>
