<svg width="20" height="20" viewBox="0 0 20 20" fill="none" xmlns="http://www.w3.org/2000/svg">
<path d="M10.0003 1H8.25829V3.61298L6.5163 4.19365L4.77431 2.45166L2.45166 4.77431L4.19365 6.5163L3.61298 8.25829H1V11.7423H3.61298L4.19365 13.4843L2.45166 15.2262L4.77431 17.5489L6.5163 15.8069L8.25829 16.3876V19.0005H10.0003H11.7423V16.3876L13.4843 15.8069L15.2262 17.5489L17.5489 15.2262L15.8069 13.4843L16.3876 11.7423H19.0005V8.25829H16.3876L15.8069 6.5163L17.5489 4.77431L15.2262 2.45166L13.4843 4.19365L11.7423 3.61298V1H10.0003Z" stroke="#008768" stroke-miterlimit="10"/>
<path d="M14.3042 9.99987C14.3042 12.3771 12.3771 14.3042 9.99987 14.3042M5.69556 9.99987C5.69556 7.62266 7.62266 5.69556 9.99987 5.69556" stroke="#008768" stroke-miterlimit="10"/>
</svg>
