<svg width="17" height="16" viewBox="0 0 17 16" fill="none" xmlns="http://www.w3.org/2000/svg">
<path d="M14.9999 5.66662V13.4443C14.9999 13.8569 14.836 14.2525 14.5442 14.5442C14.2525 14.836 13.8569 14.9999 13.4443 14.9999H2.55554C2.14298 14.9999 1.74733 14.836 1.45561 14.5442C1.16389 14.2525 1 13.8569 1 13.4443V2.55554C1 2.14298 1.16389 1.74733 1.45561 1.45561C1.74733 1.16389 2.14298 1 2.55554 1H7.99993" stroke="#008768" stroke-linecap="round" stroke-linejoin="round"/>
<path d="M11.1111 2.55542H15.7777" stroke="#008768" stroke-linecap="round" stroke-linejoin="round"/>
<path d="M5.66662 7.22228C6.52572 7.22228 7.22216 6.52585 7.22216 5.66675C7.22216 4.80764 6.52572 4.11121 5.66662 4.11121C4.80752 4.11121 4.11108 4.80764 4.11108 5.66675C4.11108 6.52585 4.80752 7.22228 5.66662 7.22228Z" stroke="#008768" stroke-linecap="round" stroke-linejoin="round"/>
<path d="M14.9998 10.3334L12.5996 7.93322C12.3079 7.6416 11.9123 7.47778 11.4998 7.47778C11.0874 7.47778 10.6918 7.6416 10.4001 7.93322L3.33325 15" stroke="#008768" stroke-linecap="round" stroke-linejoin="round"/>
</svg>
