<svg width="24" height="24" viewBox="0 0 24 24" fill="none" xmlns="http://www.w3.org/2000/svg">
<path d="M6.34526 15.3841L4.97668 17.3063L6.73096 19.0668L8.6532 17.6858C9.18933 18.0017 9.76734 18.2405 10.3701 18.395L10.7683 20.734H13.2566L13.6547 18.4012C14.257 18.242 14.8346 18.0013 15.3717 17.6858L17.2939 19.0668L19.0482 17.3063L17.6734 15.3841C17.988 14.8546 18.2247 14.2827 18.3764 13.6858L20.7092 13.3001V10.8118L18.3764 10.4261C18.2219 9.82328 17.9831 9.24527 17.6672 8.70913L19.0358 6.77445L17.2815 4.97663L15.3468 6.35143C14.8119 6.03297 14.2336 5.79408 13.6299 5.64226L13.2442 3.30322H10.7558L10.3764 5.64226C9.77068 5.79401 9.19024 6.03289 8.6532 6.35143L6.71851 4.97663L4.97668 6.74957L6.34526 8.67803C6.02704 9.21154 5.78617 9.78753 5.62987 10.3888L3.29083 10.7869V13.2752L5.62987 13.6858C5.7855 14.2833 6.02645 14.8553 6.34526 15.3841V15.3841Z" stroke="#008768" stroke-width="1.5" stroke-linecap="round" stroke-linejoin="round"/>
<path d="M11.042 9.6671C11.3465 9.5444 11.6717 9.48105 12 9.48048C12.505 9.47925 12.999 9.62794 13.4194 9.90773C13.8398 10.1875 14.1676 10.5858 14.3614 11.0521C14.5553 11.5184 14.6063 12.0317 14.5081 12.5271C14.4099 13.0224 14.1668 13.4774 13.8097 13.8345C13.4527 14.1916 12.9976 14.4346 12.5023 14.5329C12.007 14.6311 11.4936 14.58 11.0273 14.3862C10.561 14.1924 10.1627 13.8645 9.88295 13.4441C9.60317 13.0238 9.45447 12.5298 9.4557 12.0248C9.45383 11.7889 9.48738 11.554 9.55523 11.3281" stroke="#008768" stroke-width="1.5" stroke-linecap="round" stroke-linejoin="round"/>
</svg>
