<svg width="20" height="8" viewBox="0 0 22 8" fill="none" xmlns="http://www.w3.org/2000/svg">
<path d="M3.99942 1.70265C3.5361 1.70101 3.08273 1.83701 2.69681 2.09339C2.31089 2.34978 2.0098 2.715 1.83174 3.14274C1.65367 3.57048 1.60665 4.04147 1.69664 4.49597C1.78663 4.95047 2.00957 5.368 2.33719 5.69562C2.66481 6.02324 3.08234 6.24618 3.53684 6.33617C3.99134 6.42615 4.46233 6.37914 4.89007 6.20107C5.31781 6.02301 5.68303 5.72192 5.93942 5.336C6.1958 4.95008 6.3318 4.49671 6.33016 4.03339C6.32581 3.41658 6.07886 2.82627 5.6427 2.39011C5.20654 1.95395 4.61623 1.707 3.99942 1.70265V1.70265ZM18.0087 1.70265C17.5454 1.70101 17.0921 1.83701 16.7061 2.09339C16.3202 2.34978 16.0191 2.715 15.8411 3.14274C15.663 3.57048 15.616 4.04147 15.706 4.49597C15.796 4.95047 16.0189 5.368 16.3465 5.69562C16.6741 6.02324 17.0917 6.24618 17.5462 6.33617C18.0007 6.42615 18.4717 6.37914 18.8994 6.20107C19.3271 6.02301 19.6924 5.72192 19.9487 5.336C20.2051 4.95008 20.3411 4.49671 20.3395 4.03339C20.3351 3.41658 20.0882 2.82627 19.652 2.39011C19.2159 1.95395 18.6256 1.707 18.0087 1.70265V1.70265ZM10.9999 1.70265C10.537 1.70265 10.0844 1.84005 9.69958 2.09743C9.31475 2.35482 9.01496 2.72062 8.83817 3.1485C8.66138 3.57639 8.61554 4.04712 8.70647 4.50107C8.79739 4.95502 9.02099 5.37178 9.34894 5.69857C9.67689 6.02536 10.0944 6.24747 10.5487 6.33679C11.003 6.4261 11.4736 6.37859 11.9008 6.20028C12.3281 6.02198 12.6928 5.72089 12.9488 5.33514C13.2048 4.9494 13.3406 4.49636 13.339 4.03339C13.3368 3.41448 13.0894 2.82167 12.651 2.3848C12.2125 1.94794 11.6189 1.70265 10.9999 1.70265V1.70265Z" stroke="#008768" stroke-width="1.5" stroke-linecap="round" stroke-linejoin="round"/>
</svg>
