<svg width="30" height="30" viewBox="0 0 40 40" fill="none" xmlns="http://www.w3.org/2000/svg">
<path d="M23.9087 33.292C23.7507 34.2128 23.2723 35.0482 22.558 35.6504C21.8437 36.2526 20.9394 36.5829 20.0051 36.5829C19.0708 36.5829 18.1666 36.2526 17.4523 35.6504C16.738 35.0482 16.2595 34.2128 16.1016 33.292" stroke="#008768" stroke-width="1.5" stroke-linecap="round" stroke-linejoin="round"/>
<path d="M26.9569 15.8733C26.9569 15.8733 27.1746 10.6892 22.7371 9.2066C21.8444 8.94488 20.9197 8.80879 19.9895 8.80225C19.0661 8.80841 18.1482 8.94453 17.2627 9.2066C12.8356 10.6581 13.0429 15.8733 13.0429 15.8733C13.0429 23.4316 7.85889 26.1169 7.85889 26.1169V30.8136H32.1409V26.1169C32.1409 26.1169 26.9569 23.4316 26.9569 15.8733Z" stroke="#008768" stroke-width="1.5" stroke-linecap="round" stroke-linejoin="round"/>
<path d="M19.9999 3.48389C20.5249 3.48389 21.0381 3.63955 21.4745 3.9312C21.911 4.22285 22.2512 4.63739 22.4521 5.12238C22.653 5.60738 22.7056 6.14106 22.6032 6.65593C22.5007 7.17079 22.2479 7.64373 21.8767 8.01493C21.5055 8.38613 21.0326 8.63892 20.5177 8.74134C20.0029 8.84375 19.4692 8.79119 18.9842 8.5903C18.4992 8.3894 18.0847 8.04921 17.793 7.61272C17.5014 7.17624 17.3457 6.66307 17.3457 6.13811C17.3457 5.43417 17.6253 4.75905 18.1231 4.26129C18.6209 3.76353 19.296 3.48389 19.9999 3.48389V3.48389Z" stroke="#008768" stroke-width="1.5" stroke-linecap="round" stroke-linejoin="round"/>
</svg>
