<svg width="31" height="30" viewBox="0 0 31 30" fill="none" xmlns="http://www.w3.org/2000/svg">
<path d="M2.35808 16.3274C1.94471 16.5843 1.60249 16.9472 1.36456 17.3811C1.12663 17.8149 1.00106 18.305 1 18.8038V23.496C1.00106 23.9948 1.12663 24.4848 1.36456 24.9187C1.60249 25.3525 1.94471 25.7155 2.35808 25.9724L6.55832 28.5791C6.99383 28.8498 7.49233 28.9927 8.0004 28.9927C8.50847 28.9927 9.00697 28.8498 9.44248 28.5791L15.0008 25.1324V17.1673L8.0004 12.8228L2.35808 16.3274V16.3274Z" stroke="#008768" stroke-width="2" stroke-linecap="round" stroke-linejoin="round"/>
<path d="M7.99966 21.5131L1.36328 17.3857" stroke="#008768" stroke-width="2" stroke-linecap="round" stroke-linejoin="round"/>
<path d="M8 21.5121L15.0004 17.1675" stroke="#008768" stroke-width="2" stroke-linecap="round" stroke-linejoin="round"/>
<path d="M8 21.5137V29.0008" stroke="#008768" stroke-width="2" stroke-linecap="round" stroke-linejoin="round"/>
<path d="M15.001 17.1673V25.1324L20.5593 28.5791C20.9948 28.8498 21.4933 28.9927 22.0014 28.9927C22.5094 28.9927 23.0079 28.8498 23.4435 28.5791L27.6437 25.9724C28.0571 25.7155 28.3993 25.3525 28.6372 24.9187C28.8751 24.4848 29.0007 23.9948 29.0018 23.496V18.8038C29.0007 18.305 28.8751 17.8149 28.6372 17.3811C28.3993 16.9472 28.0571 16.5843 27.6437 16.3274L22.0014 12.8228L15.001 17.1673Z" stroke="#008768" stroke-width="2" stroke-linecap="round" stroke-linejoin="round"/>
<path d="M22.0014 21.5121L15.001 17.1675" stroke="#008768" stroke-width="2" stroke-linecap="round" stroke-linejoin="round"/>
<path d="M22.001 21.5131L28.6374 17.3857" stroke="#008768" stroke-width="2" stroke-linecap="round" stroke-linejoin="round"/>
<path d="M22.001 21.5137V29.0008" stroke="#008768" stroke-width="2" stroke-linecap="round" stroke-linejoin="round"/>
<path d="M9.35808 4.02038C8.94471 4.27726 8.60249 4.64021 8.36456 5.07407C8.12663 5.50793 8.00106 5.998 8 6.4968V12.8254L15.0004 17.17L22.0008 12.8254V6.4968C21.9997 5.998 21.8742 5.50793 21.6362 5.07407C21.3983 4.64021 21.0561 4.27726 20.6427 4.02038L16.4425 1.41363C16.007 1.14298 15.5085 1 15.0004 1C14.4923 1 13.9938 1.14298 13.5583 1.41363L9.35808 4.02038V4.02038Z" stroke="#008768" stroke-width="2" stroke-linecap="round" stroke-linejoin="round"/>
<path d="M15.0006 9.20353L8.36426 5.07617" stroke="#008768" stroke-width="2" stroke-linecap="round" stroke-linejoin="round"/>
<path d="M15.001 9.20353L21.6374 5.07617" stroke="#008768" stroke-width="2" stroke-linecap="round" stroke-linejoin="round"/>
<path d="M15.001 17.1692V9.2041" stroke="#008768" stroke-width="2" stroke-linecap="round" stroke-linejoin="round"/>
</svg>
