<svg width="24" height="24"  viewBox="0 0 32 32" fill="none" xmlns="http://www.w3.org/2000/svg">
<path d="M24.4438 7.82178H27.6123" stroke="#008768" stroke-width="1.5" stroke-linecap="round" stroke-linejoin="round"/>
<path d="M4.3877 7.82178H18.8532" stroke="#008768" stroke-width="1.5" stroke-linecap="round" stroke-linejoin="round"/>
<path d="M24.2612 7.82174C24.2612 8.33686 24.1084 8.8404 23.8222 9.2687C23.5361 9.697 23.1293 10.0308 22.6534 10.2279C22.1775 10.4251 21.6538 10.4767 21.1486 10.3762C20.6434 10.2757 20.1793 10.0276 19.8151 9.66337C19.4508 9.29913 19.2028 8.83506 19.1023 8.32985C19.0018 7.82463 19.0534 7.30096 19.2505 6.82506C19.4476 6.34916 19.7814 5.9424 20.2097 5.65622C20.638 5.37003 21.1416 5.21729 21.6567 5.21729C22.3475 5.21729 23.0099 5.49168 23.4983 5.98011C23.9868 6.46854 24.2612 7.131 24.2612 7.82174V7.82174Z" stroke="#008768" stroke-width="1.5" stroke-linecap="round" stroke-linejoin="round"/>
<path d="M21.5076 24.2529H27.6123" stroke="#008768" stroke-width="1.5" stroke-linecap="round" stroke-linejoin="round"/>
<path d="M4.3877 24.2529H15.9253" stroke="#008768" stroke-width="1.5" stroke-linecap="round" stroke-linejoin="round"/>
<path d="M21.3251 24.2529C21.3251 24.7684 21.1722 25.2722 20.8856 25.7007C20.5991 26.1292 20.1918 26.463 19.7154 26.6599C19.239 26.8568 18.7149 26.9079 18.2095 26.8067C17.7041 26.7055 17.24 26.4567 16.8761 26.0916C16.5122 25.7265 16.2648 25.2617 16.1652 24.7559C16.0657 24.2501 16.1185 23.7262 16.3169 23.2505C16.5153 22.7747 16.8504 22.3685 17.2798 22.0833C17.7091 21.7982 18.2135 21.6468 18.729 21.6485C19.0706 21.6484 19.4089 21.7159 19.7244 21.8469C20.0399 21.9779 20.3265 22.1698 20.5677 22.4118C20.8089 22.6537 20.9999 22.9409 21.1299 23.2569C21.2599 23.5728 21.3262 23.9113 21.3251 24.2529Z" stroke="#008768" stroke-width="1.5" stroke-linecap="round" stroke-linejoin="round"/>
<path d="M7.664 16.0332H4.3877" stroke="#008768" stroke-width="1.5" stroke-linecap="round" stroke-linejoin="round"/>
<path d="M27.6123 16.0332H13.2546" stroke="#008768" stroke-width="1.5" stroke-linecap="round" stroke-linejoin="round"/>
<path d="M7.85475 16.0332C7.85475 15.5177 8.00771 15.0138 8.29426 14.5853C8.58081 14.1569 8.98806 13.823 9.46445 13.6262C9.94084 13.4293 10.4649 13.3782 10.9704 13.4794C11.4758 13.5805 11.9399 13.8294 12.3038 14.1945C12.6677 14.5596 12.9151 15.0244 13.0146 15.5302C13.1142 16.0359 13.0614 16.5598 12.863 17.0356C12.6646 17.5114 12.3295 17.9175 11.9001 18.2027C11.4707 18.4879 10.9664 18.6393 10.4509 18.6376C10.1093 18.6376 9.77101 18.5702 9.45548 18.4392C9.13996 18.3082 8.85339 18.1162 8.61221 17.8743C8.37102 17.6323 8.17997 17.3452 8.04998 17.0292C7.92 16.7133 7.85366 16.3748 7.85475 16.0332V16.0332Z" stroke="#008768" stroke-width="1.5" stroke-linecap="round" stroke-linejoin="round"/>
</svg>
