<svg width="18" height="18" viewBox="0 0 18 18" fill="none" xmlns="http://www.w3.org/2000/svg">
<path d="M9.00013 1.0625C13.3842 1.0625 16.9378 4.61604 16.9375 9C16.9378 13.3842 13.3839 16.938 8.99987 16.9375C4.61559 16.9378 1.06225 13.3842 1.0625 9.00025C1.06173 4.61604 4.61559 1.0625 9.00013 1.0625Z" stroke="#008768" stroke-miterlimit="10"/>
<path d="M9 1.0625V16.9375" stroke="#008768" stroke-miterlimit="10"/>
<path d="M16.9375 9H1.0625" stroke="#008768" stroke-miterlimit="10"/>
<path d="M8.55903 1.0625C8.55903 1.0625 5.03125 3.87903 5.03125 9C5.03125 14.121 8.55903 16.9375 8.55903 16.9375" stroke="#008768" stroke-miterlimit="10"/>
<path d="M9.44092 1.0625C9.44092 1.0625 12.9687 3.87903 12.9687 9C12.9687 14.121 9.44092 16.9375 9.44092 16.9375" stroke="#008768" stroke-miterlimit="10"/>
<path d="M2.82642 3.70825C2.82642 3.70825 4.11258 6.35408 9.00003 6.35408C13.8875 6.35408 15.1736 3.70825 15.1736 3.70825" stroke="#008768" stroke-miterlimit="10"/>
<path d="M2.82642 14.2916C2.82642 14.2916 4.11258 11.6458 9.00003 11.6458C13.8875 11.6458 15.1736 14.2916 15.1736 14.2916" stroke="#008768" stroke-miterlimit="10"/>
</svg>
