<svg width="20" height="20" viewBox="0 0 20 20" fill="none" xmlns="http://www.w3.org/2000/svg">
<path fill-rule="evenodd" clip-rule="evenodd" d="M13.3667 14.0752C13.8 13.6835 14.3667 13.4335 15 13.4335C16.3417 13.4335 17.4333 14.5252 17.4333 15.8669C17.4333 17.2085 16.3417 18.3002 15 18.3002C13.6583 18.3002 12.5667 17.2085 12.5667 15.8669C12.5667 15.6835 12.5917 15.5002 12.6333 15.3252L6.7 11.8585C6.25 12.2752 5.65833 12.5335 5 12.5335C3.61667 12.5335 2.5 11.4169 2.5 10.0335C2.5 8.65019 3.61667 7.53353 5 7.53353C5.65833 7.53353 6.25 7.79186 6.7 8.20853L12.575 4.78353C12.5333 4.59186 12.5 4.4002 12.5 4.2002C12.5 2.81686 13.6167 1.7002 15 1.7002C16.3833 1.7002 17.5 2.81686 17.5 4.2002C17.5 5.58353 16.3833 6.70019 15 6.70019C14.3417 6.70019 13.75 6.44186 13.3 6.0252L7.425 9.45019C7.46667 9.64186 7.5 9.83353 7.5 10.0335C7.5 10.2335 7.46667 10.4252 7.425 10.6169L13.3667 14.0752ZM15.8333 4.2002C15.8333 3.74186 15.4583 3.36686 15 3.36686C14.5417 3.36686 14.1667 3.74186 14.1667 4.2002C14.1667 4.65853 14.5417 5.03353 15 5.03353C15.4583 5.03353 15.8333 4.65853 15.8333 4.2002ZM5 10.8669C4.54167 10.8669 4.16667 10.4919 4.16667 10.0335C4.16667 9.5752 4.54167 9.2002 5 9.2002C5.45833 9.2002 5.83333 9.5752 5.83333 10.0335C5.83333 10.4919 5.45833 10.8669 5 10.8669ZM14.1667 15.8835C14.1667 16.3419 14.5417 16.7169 15 16.7169C15.4583 16.7169 15.8333 16.3419 15.8333 15.8835C15.8333 15.4252 15.4583 15.0502 15 15.0502C14.5417 15.0502 14.1667 15.4252 14.1667 15.8835Z" fill="#008768"/>
</svg>
